<svg id="Layer_1" data-name="Layer 1" xmlns="http://www.w3.org/2000/svg" viewBox="0 0 23.89 17.45"><defs><style>.cls-1{fill:#b6b5eb;}</style></defs><path class="cls-1" d="M9.66,16.59h2a.44.44,0,0,0,.44-.44.44.44,0,0,0-.44-.44h-2a.44.44,0,0,0-.44.44A.44.44,0,0,0,9.66,16.59Z" transform="translate(-0.11 -3.27)"/><path class="cls-1" d="M23.69,16a3.17,3.17,0,0,1-.76-1.72,5.86,5.86,0,0,0-.27-1,4.89,4.89,0,0,0-1-1.56,3,3,0,0,0-.46-.36V4.13a.87.87,0,0,0-.86-.86H1a.86.86,0,0,0-.86.86V17a.85.85,0,0,0,.86.85H7.73v2H4.28a.45.45,0,0,0,0,.89H17a.45.45,0,0,0,0-.89H13.56v-2h1.67c.41.41,1.2.35,2,.28a6.24,6.24,0,0,1,1.43,0,2.2,2.2,0,0,1,1.28.91,1,1,0,0,0,.67.41h.16a1,1,0,0,0,.62-.21l2.17-1.61a1.19,1.19,0,0,0,.46-.83A1.13,1.13,0,0,0,23.69,16ZM20.3,4.13V11a3.7,3.7,0,0,0-.48-.06,4.9,4.9,0,0,0-2.89,1.5c-.72-.73-1.16-1-1.58-1a1.24,1.24,0,0,0-.89.55c-.51.62.15,1.46,1,2.31-5.39,0-12.75.06-14.47,0L1,4.16ZM1,15.19c.62,0,1.79,0,4.06,0s5.88,0,11.18-.05l.11,0,.37.38-.39.24c-.51.29-1.16.68-1.32,1.22H8.11L1,17Zm11.69,4.65H8.62v-2h4.06ZM23,17l-2.17,1.61a.12.12,0,0,1-.12,0,.12.12,0,0,1-.09-.05,3,3,0,0,0-1.84-1.26,3.53,3.53,0,0,0-.66-.05c-.33,0-.66,0-1,.05a3.06,3.06,0,0,1-1.28,0c0-.07.13-.25.92-.71.49-.29.89-.52.92-.91s-.25-.63-1-1.4c-.46-.45-1.41-1.36-1.47-1.71a.76.76,0,0,1,.2-.2s.29,0,1.2,1l0,0L18,14.76a.44.44,0,0,0,.63-.62l-1.09-1.09a4.22,4.22,0,0,1,2.25-1.25,1.8,1.8,0,0,1,1.24.56,4,4,0,0,1,.81,1.26,4.66,4.66,0,0,1,.22.82,4.05,4.05,0,0,0,1,2.14.21.21,0,0,1,.06.18A.26.26,0,0,1,23,17Z" transform="translate(-0.11 -3.27)"/><path class="cls-1" d="M10.48,10.6a2.23,2.23,0,0,1-1.1-.3l-.2.78a2.74,2.74,0,0,0,1.12.28V12H11v-.67a1.28,1.28,0,0,0,1.18-1.23c0-.59-.32-1-1.1-1.24-.57-.21-.8-.35-.8-.57s.14-.37.57-.37a2.18,2.18,0,0,1,.95.23l.2-.75a2.34,2.34,0,0,0-1-.22V6.59h-.65v.63A1.22,1.22,0,0,0,9.22,8.4c0,.64.48,1,1.19,1.21.49.16.7.32.7.57S10.85,10.6,10.48,10.6Z" transform="translate(-0.11 -3.27)"/></svg>