<?xml version="1.0" encoding="utf-8"?>
<!-- Generator: Adobe Illustrator 26.0.1, SVG Export Plug-In . SVG Version: 6.00 Build 0)  -->
<svg version="1.1" id="Layer_1" xmlns="http://www.w3.org/2000/svg" xmlns:xlink="http://www.w3.org/1999/xlink" x="0px" y="0px"
	 viewBox="0 0 24 24" style="enable-background:new 0 0 24 24;" xml:space="preserve">
<style type="text/css">
	.st0{fill:#FF5C39;}
</style>
<g id="XMLID_26_">
	<path id="XMLID_27_" class="st0" d="M9.7,16.6h2c0.2,0,0.4-0.2,0.4-0.4c0-0.2-0.2-0.4-0.4-0.4h-2c-0.2,0-0.4,0.2-0.4,0.4
		C9.2,16.4,9.4,16.6,9.7,16.6z"/>
	<path id="XMLID_98_" class="st0" d="M23.7,16c-0.5-0.5-0.6-1.1-0.8-1.7c-0.1-0.3-0.1-0.7-0.3-1c-0.3-0.6-0.6-1.2-1-1.6
		c-0.1-0.1-0.3-0.3-0.5-0.4V4.1c0-0.5-0.4-0.9-0.9-0.9H1c-0.5,0-0.9,0.4-0.9,0.9V17c0,0.5,0.4,0.9,0.9,0.9h6.8v2H4.3
		c-0.2,0-0.4,0.2-0.4,0.4c0,0.2,0.2,0.4,0.4,0.4H17c0.2,0,0.4-0.2,0.4-0.4c0-0.2-0.2-0.4-0.4-0.4h-3.5v-2h1.7c0.4,0.4,1.2,0.3,2,0.3
		c0.5,0,1-0.1,1.4,0c0.6,0.1,1,0.6,1.3,0.9c0.2,0.2,0.4,0.4,0.7,0.4c0.1,0,0.1,0,0.2,0c0.2,0,0.4-0.1,0.6-0.2l2.2-1.6
		c0.3-0.2,0.4-0.5,0.5-0.8C24,16.5,23.9,16.2,23.7,16z M20.3,4.1V11c-0.2,0-0.3-0.1-0.5-0.1c-1.1,0-2.3,1-2.9,1.5
		c-0.7-0.7-1.2-1-1.6-1c-0.4,0-0.7,0.3-0.9,0.6c-0.5,0.6,0.2,1.5,1,2.3c-5.4,0-12.7,0.1-14.5,0L1,4.2L20.3,4.1z M1,15.2
		c0.6,0,1.8,0,4.1,0c2.4,0,5.9,0,11.2-0.1c0,0,0.1,0,0.1,0c0.1,0.1,0.3,0.3,0.4,0.4c-0.1,0.1-0.3,0.2-0.4,0.2
		c-0.5,0.3-1.2,0.7-1.3,1.2l-1.9,0c0,0,0,0,0,0c0,0,0,0,0,0l-4.9,0c0,0,0,0-0.1,0c0,0,0,0-0.1,0L1,17L1,15.2z M12.7,19.8H8.6v-2h4.1
		V19.8z M23,16.9l-2.2,1.6c0,0-0.1,0-0.1,0c0,0-0.1,0-0.1-0.1c-0.4-0.5-1-1.1-1.8-1.3c-0.2,0-0.4,0-0.7,0c-0.3,0-0.7,0-1,0.1
		c-0.4,0-1.2,0.1-1.3,0c0-0.1,0.1-0.3,0.9-0.7c0.5-0.3,0.9-0.5,0.9-0.9c0-0.3-0.2-0.6-1-1.4c-0.5-0.4-1.4-1.4-1.5-1.7
		c0.1-0.1,0.2-0.2,0.2-0.2c0,0,0.3,0,1.2,1c0,0,0,0,0,0l1.4,1.4c0.2,0.2,0.5,0.2,0.6,0c0.2-0.2,0.2-0.5,0-0.6L17.5,13
		c0.6-0.5,1.6-1.3,2.2-1.2c0.5,0,0.9,0.2,1.2,0.6c0.3,0.3,0.6,0.7,0.8,1.3c0.1,0.2,0.2,0.5,0.2,0.8c0.1,0.7,0.3,1.4,1,2.1
		c0.1,0.1,0.1,0.1,0.1,0.2C23.1,16.8,23.1,16.9,23,16.9z"/>
	<path id="XMLID_102_" class="st0" d="M10.5,10.6c-0.4,0-0.8-0.1-1.1-0.3l-0.2,0.8c0.3,0.1,0.7,0.3,1.1,0.3V12H11v-0.7
		c0.8-0.1,1.2-0.6,1.2-1.2c0-0.6-0.3-1-1.1-1.2c-0.6-0.2-0.8-0.4-0.8-0.6c0-0.2,0.1-0.4,0.6-0.4c0.5,0,0.8,0.2,1,0.2l0.2-0.7
		c-0.2-0.1-0.5-0.2-1-0.2V6.6h-0.6v0.6C9.6,7.4,9.2,7.8,9.2,8.4c0,0.6,0.5,1,1.2,1.2c0.5,0.2,0.7,0.3,0.7,0.6
		C11.1,10.4,10.9,10.6,10.5,10.6z"/>
</g>
</svg>
