<svg id="Layer_1" data-name="Layer 1" xmlns="http://www.w3.org/2000/svg" viewBox="0 0 24 24"><defs><style>.cls-1{fill:#b6b5eb;}</style></defs><path class="cls-1" d="M12,9.58a2,2,0,0,1-2-2,2,2,0,1,1,3.92,0A2,2,0,0,1,12,9.58Zm0-3.34a1.24,1.24,0,0,0-1.19,1.29,1.19,1.19,0,1,0,2.38,0A1.24,1.24,0,0,0,12,6.24Z"/><path class="cls-1" d="M12,23.61a.38.38,0,0,1-.38-.39V17.4a.38.38,0,0,1,.76,0v5.82A.38.38,0,0,1,12,23.61Z"/><path class="cls-1" d="M13.76,23.61H10.24a.38.38,0,0,1-.39-.39V12.75A7.82,7.82,0,0,1,4.72,9.31,1.29,1.29,0,0,1,5,7.63a1.27,1.27,0,0,1,1.69.1,10.66,10.66,0,0,0,3.58,2.39h3.4a10.66,10.66,0,0,0,3.58-2.39A1.27,1.27,0,0,1,19,7.63a1.29,1.29,0,0,1,.31,1.68,7.82,7.82,0,0,1-5.13,3.44V23.22A.38.38,0,0,1,13.76,23.61Zm-3.14-.77h2.76V12.42A.4.4,0,0,1,13.7,12a7,7,0,0,0,4.92-3.13.51.51,0,0,0-.12-.67.5.5,0,0,0-.67,0,10.86,10.86,0,0,1-3.95,2.6.25.25,0,0,1-.12,0H10.24a.25.25,0,0,1-.12,0,10.86,10.86,0,0,1-3.95-2.6.5.5,0,0,0-.67,0,.51.51,0,0,0-.12.67A7,7,0,0,0,10.3,12a.4.4,0,0,1,.32.38Z"/><path class="cls-1" d="M17.78,6.26a.29.29,0,0,1-.26-.15.3.3,0,0,1,.11-.42l2.11-1.22a.31.31,0,0,1,.42.12.32.32,0,0,1-.11.42L17.94,6.22A.29.29,0,0,1,17.78,6.26Z"/><path class="cls-1" d="M20.42,8.15a.32.32,0,0,1-.31-.26.3.3,0,0,1,.25-.35L21,7.43a.3.3,0,0,1,.35.25.31.31,0,0,1-.25.36l-.58.1Z"/><path class="cls-1" d="M21,11.24H21L19.37,11a.31.31,0,1,1,.11-.6l1.59.28a.31.31,0,0,1-.05.61Z"/><path class="cls-1" d="M19.94,14.25a.3.3,0,0,1-.15-.05L17.68,13a.3.3,0,0,1-.11-.42.31.31,0,0,1,.42-.12l2.11,1.22a.31.31,0,0,1,.11.42A.32.32,0,0,1,19.94,14.25Z"/><path class="cls-1" d="M17.9,16.7a.28.28,0,0,1-.23-.11L16.1,14.73a.3.3,0,0,1,0-.43.31.31,0,0,1,.44,0l1.56,1.87a.31.31,0,0,1-.24.5Z"/><path class="cls-1" d="M6.22,6.26a.29.29,0,0,1-.16,0L4,5a.32.32,0,0,1-.11-.42.31.31,0,0,1,.42-.12L6.37,5.69a.3.3,0,0,1,.11.42A.29.29,0,0,1,6.22,6.26Z"/><path class="cls-1" d="M3.58,8.15H3.53L3,8a.31.31,0,0,1-.25-.36.3.3,0,0,1,.35-.25l.59.11a.3.3,0,0,1,.25.35A.32.32,0,0,1,3.58,8.15Z"/><path class="cls-1" d="M3,11.24a.31.31,0,0,1,0-.61l1.59-.28a.31.31,0,1,1,.11.6L3,11.23Z"/><path class="cls-1" d="M4.06,14.25a.31.31,0,0,1-.16-.58L6,12.45a.31.31,0,0,1,.42.12.3.3,0,0,1-.11.42L4.21,14.2A.3.3,0,0,1,4.06,14.25Z"/><path class="cls-1" d="M6.1,16.7a.31.31,0,0,1-.24-.5l1.56-1.87a.31.31,0,0,1,.44,0,.3.3,0,0,1,0,.43L6.33,16.59A.28.28,0,0,1,6.1,16.7Z"/><path class="cls-1" d="M13.76,22.09a.45.45,0,0,1-.19-.05.39.39,0,0,1-.19-.33V12.42A.4.4,0,0,1,13.7,12a7,7,0,0,0,4.92-3.13.51.51,0,0,0-.12-.67.5.5,0,0,0-.67,0,10.86,10.86,0,0,1-3.95,2.6.25.25,0,0,1-.12,0H10.24a.25.25,0,0,1-.12,0,10.86,10.86,0,0,1-3.95-2.6.5.5,0,0,0-.67,0,.51.51,0,0,0-.12.67A7,7,0,0,0,10.3,12a.4.4,0,0,1,.32.38v9.29a.39.39,0,0,1-.19.33.37.37,0,0,1-.38,0C3.71,18.5,1.33,14.39.46,11.56A7.94,7.94,0,0,1,0,9.49a4.7,4.7,0,0,1,0-.63C0,4.7,3.12,1.31,7,1.31A6.65,6.65,0,0,1,12,3.68a6.65,6.65,0,0,1,5.05-2.37c3.83,0,7,3.39,7,7.56,0,.05,0,.27,0,.63a8.21,8.21,0,0,1-.43,2.07C22.67,14.38,20.3,18.5,14,22A.41.41,0,0,1,13.76,22.09Zm.39-9.34V21c5.7-3.34,7.85-7.11,8.66-9.71a7.31,7.31,0,0,0,.39-1.89,3.74,3.74,0,0,0,0-.55c0-3.76-2.77-6.81-6.18-6.81a6,6,0,0,0-4.74,2.44.41.41,0,0,1-.62,0A6,6,0,0,0,7,2.08C3.54,2.08.77,5.13.77,8.88a3.64,3.64,0,0,0,0,.55,7.14,7.14,0,0,0,.39,1.89C2,13.94,4.16,17.7,9.85,21V12.75A7.82,7.82,0,0,1,4.72,9.31,1.29,1.29,0,0,1,5,7.63a1.27,1.27,0,0,1,1.69.1,10.66,10.66,0,0,0,3.58,2.39h3.4a10.66,10.66,0,0,0,3.58-2.39A1.27,1.27,0,0,1,19,7.63a1.29,1.29,0,0,1,.31,1.68A7.82,7.82,0,0,1,14.15,12.75Z"/></svg>