<svg id="Layer_1" data-name="Layer 1" xmlns="http://www.w3.org/2000/svg" viewBox="0 0 24 24"><defs><style>.cls-1{fill:#b6b5eb;}</style></defs><path class="cls-1" d="M8.41,22.8a4,4,0,0,1-3.9-3.15,4.09,4.09,0,0,1-3-4v-.07A4.25,4.25,0,0,1,1.67,9a3,3,0,0,1-.16-1A3.21,3.21,0,0,1,4.33,4.86a4,4,0,0,1,8.07.38V18.81A4,4,0,0,1,8.41,22.8ZM8.36,2A3.25,3.25,0,0,0,5.12,5.24a.4.4,0,0,1-.4.4A2.41,2.41,0,0,0,2.53,9a.41.41,0,0,1-.15.5,3.44,3.44,0,0,0-.26,5.59.39.39,0,0,1,.16.34v0c0,.07,0,.13,0,.19a3.29,3.29,0,0,0,2.68,3.23.39.39,0,0,1,.32.34,3.19,3.19,0,0,0,6.34-.45V5.24A3.25,3.25,0,0,0,8.36,2Z"/><path class="cls-1" d="M5.34,7.68A.38.38,0,0,1,5,7.5a4,4,0,0,1-.69-2.26.4.4,0,0,1,.8,0,3.25,3.25,0,0,0,.56,1.81.41.41,0,0,1-.11.56A.39.39,0,0,1,5.34,7.68Z"/><path class="cls-1" d="M1.56,10.07A.42.42,0,0,1,1.27,10a.41.41,0,0,1,0-.57,4.22,4.22,0,0,1,2.3-1.16A.4.4,0,0,1,4,8.55.42.42,0,0,1,3.7,9,3.44,3.44,0,0,0,1.84,10,.38.38,0,0,1,1.56,10.07Z"/><path class="cls-1" d="M5.55,19.79A4.1,4.1,0,0,1,2,13.65a.41.41,0,0,1,.55-.15.4.4,0,0,1,.15.55,3.38,3.38,0,0,0-.44,1.64A3.3,3.3,0,0,0,5.55,19a3.24,3.24,0,0,0,1.92-.62.41.41,0,0,1,.47.66A4.1,4.1,0,0,1,5.55,19.79Z"/><path class="cls-1" d="M6.72,15.66a2.1,2.1,0,0,1-1.89-1.17A.41.41,0,0,1,5,13.94a.4.4,0,0,1,.54.18A1.3,1.3,0,0,0,8,13.54a1.48,1.48,0,0,0,0-.21.39.39,0,0,1,.33-.46.4.4,0,0,1,.47.33c0,.11,0,.23,0,.34A2.11,2.11,0,0,1,6.72,15.66Z"/><path class="cls-1" d="M9.21,7.1a.41.41,0,0,1-.41-.4,1.74,1.74,0,0,0-.63-1.35.4.4,0,1,1,.52-.62,2.54,2.54,0,0,1,.92,2A.4.4,0,0,1,9.21,7.1Z"/><path class="cls-1" d="M15.59,22.8a4,4,0,0,1-4-4V5.24a4,4,0,0,1,4-4h.24a.42.42,0,0,1,.38.43.4.4,0,0,1-.43.38h-.19A3.25,3.25,0,0,0,12.4,5.24V18.81a3.19,3.19,0,0,0,6.34.45.39.39,0,0,1,.32-.34,3.29,3.29,0,0,0,2.68-3.23c0-.06,0-.12,0-.19v0a.39.39,0,0,1,.16-.34,3.44,3.44,0,0,0-.26-5.59.41.41,0,0,1-.15-.5,2.41,2.41,0,0,0-2.19-3.39.4.4,0,0,1-.4-.4,3.19,3.19,0,0,0-.67-2,.39.39,0,0,1,.08-.56.4.4,0,0,1,.56.07,4,4,0,0,1,.82,2.08,3.21,3.21,0,0,1,2.82,3.19,3,3,0,0,1-.16,1,4.25,4.25,0,0,1,.21,6.58v.07a4.09,4.09,0,0,1-3.05,4A4,4,0,0,1,15.59,22.8Z"/><path class="cls-1" d="M18.66,7.68a.39.39,0,0,1-.23-.07.41.41,0,0,1-.11-.56,3.25,3.25,0,0,0,.56-1.81.4.4,0,1,1,.8,0A4,4,0,0,1,19,7.5.38.38,0,0,1,18.66,7.68Z"/><path class="cls-1" d="M22.44,10.07a.38.38,0,0,1-.28-.12A3.44,3.44,0,0,0,20.3,9,.42.42,0,0,1,20,8.55a.4.4,0,0,1,.46-.33,4.22,4.22,0,0,1,2.3,1.16.41.41,0,0,1,0,.57A.42.42,0,0,1,22.44,10.07Z"/><path class="cls-1" d="M18.45,19.79A4.1,4.1,0,0,1,16.06,19a.41.41,0,0,1,.47-.66,3.24,3.24,0,0,0,1.92.62,3.3,3.3,0,0,0,3.29-3.29,3.38,3.38,0,0,0-.44-1.64.4.4,0,0,1,.15-.55.41.41,0,0,1,.55.15,4.1,4.1,0,0,1-3.55,6.14Z"/><path class="cls-1" d="M17.28,15.66a2.11,2.11,0,0,1-2.11-2.12c0-.11,0-.23,0-.34a.41.41,0,0,1,.47-.33.39.39,0,0,1,.33.46,1.49,1.49,0,0,0,0,.21,1.31,1.31,0,0,0,1.31,1.31,1.3,1.3,0,0,0,1.17-.73.4.4,0,0,1,.54-.18.41.41,0,0,1,.18.55A2.1,2.1,0,0,1,17.28,15.66Z"/><path class="cls-1" d="M14.79,7.1a.4.4,0,0,1-.4-.4,2.54,2.54,0,0,1,.92-2,.4.4,0,1,1,.52.62,1.75,1.75,0,0,0-.64,1.35A.4.4,0,0,1,14.79,7.1Z"/></svg>