<svg id="Layer_1" data-name="Layer 1" xmlns="http://www.w3.org/2000/svg" viewBox="0 0 24 24"><defs><style>.cls-1{fill:#b6b5eb;}</style></defs><path class="cls-1" d="M15.3,11.61a.86.86,0,1,0-.86.87A.87.87,0,0,0,15.3,11.61Z"/><path class="cls-1" d="M12,16.25c-.83,0-1.68-.27-1.68-.88a.38.38,0,0,1,.38-.38.39.39,0,0,1,.38.3,1.63,1.63,0,0,0,.92.2,1.71,1.71,0,0,0,.93-.2.38.38,0,0,1,.37-.3.38.38,0,0,1,.39.38C13.67,16,12.82,16.25,12,16.25Z"/><path class="cls-1" d="M8.67,11.61a.86.86,0,1,1,.86.87A.86.86,0,0,1,8.67,11.61Z"/><path class="cls-1" d="M12,20.09A7.13,7.13,0,1,1,19.11,13,7.14,7.14,0,0,1,12,20.09Zm0-13.5A6.37,6.37,0,1,0,18.35,13,6.38,6.38,0,0,0,12,6.59Z"/><path class="cls-1" d="M17,17.88a.39.39,0,0,1-.35-.23.39.39,0,0,1,.07-.41A6.36,6.36,0,0,0,12,6.59h-.09a.4.4,0,0,1-.36-.23A.39.39,0,0,1,11.6,6,7.13,7.13,0,1,1,17,17.88Zm-4.18-12a7.13,7.13,0,0,1,5,11.17,6.37,6.37,0,0,0-.95-12.67A6.34,6.34,0,0,0,12.79,5.88Z"/><path class="cls-1" d="M7,17.88A7.13,7.13,0,1,1,12.37,6a.37.37,0,0,1,.06.41.38.38,0,0,1-.35.23H12A6.36,6.36,0,0,0,7.28,17.24a.39.39,0,0,1-.28.64Zm.1-13.5a6.37,6.37,0,0,0-.95,12.67,7.11,7.11,0,0,1,5-11.17A6.36,6.36,0,0,0,7.1,4.38Z"/><path class="cls-1" d="M21.59,8.65a.87.87,0,1,0-.86.86A.87.87,0,0,0,21.59,8.65Z"/><path class="cls-1" d="M18.81,14.61l-.25,0a.39.39,0,0,1-.32-.44.38.38,0,0,1,.43-.31,1.3,1.3,0,0,0,1.41-1.11.38.38,0,0,1,.47-.26.37.37,0,0,1,.26.47A2.07,2.07,0,0,1,18.81,14.61Z"/><path class="cls-1" d="M2.38,8.65a.86.86,0,0,1,1.72,0,.86.86,0,0,1-1.72,0Z"/><path class="cls-1" d="M5.16,14.61a2.08,2.08,0,0,1-2-1.67.38.38,0,0,1,.74-.21,1.3,1.3,0,0,0,1.4,1.11.39.39,0,0,1,.44.32.38.38,0,0,1-.32.43Z"/></svg>