<svg id="Layer_1" data-name="Layer 1" xmlns="http://www.w3.org/2000/svg" viewBox="0 0 24 24"><defs><style>.cls-1{fill:#b6b5eb;}</style></defs><path class="cls-1" d="M15.87,16.73H13.24a.4.4,0,0,1-.39-.39.39.39,0,0,1,.39-.39h2.63a.39.39,0,0,1,.39.39A.4.4,0,0,1,15.87,16.73Z"/><path class="cls-1" d="M8.3,20.11A.39.39,0,0,1,8,20l-.1-.09L3.77,16.87a.37.37,0,0,1-.16-.3.37.37,0,0,1,.13-.31L5.8,14.47a5.33,5.33,0,0,1,4.08-1.28l4.19.46a2.48,2.48,0,0,1,2.17,2.09l5.28-2.37a1.54,1.54,0,0,1,1.91.53,1.48,1.48,0,0,1,.2,1.24,1.53,1.53,0,0,1-.82,1l-5.26,2.5a7.56,7.56,0,0,1-4,.67l-2-.23A3.58,3.58,0,0,0,8.59,20,.42.42,0,0,1,8.3,20.11ZM4.62,16.53l3.67,2.69a4.39,4.39,0,0,1,3.28-.95l2,.22a6.81,6.81,0,0,0,3.61-.59l5.26-2.51a.71.71,0,0,0,.39-.46.71.71,0,0,0-.09-.6.75.75,0,0,0-.94-.25L16,16.69a.39.39,0,0,1-.39,0,.37.37,0,0,1-.16-.36A1.69,1.69,0,0,0,14,14.43L9.79,14A4.32,4.32,0,0,0,8,14.13a4.38,4.38,0,0,0-1.69.93Z"/><path class="cls-1" d="M7.61,23.53a.39.39,0,0,1-.23-.07.39.39,0,0,1-.09-.54l.9-1.28a1.22,1.22,0,0,0-.25-1.71l-4.6-3.38a1.23,1.23,0,0,0-.91-.22,1.18,1.18,0,0,0-.79.49L.51,18.38a.4.4,0,0,1-.55.08.38.38,0,0,1-.08-.54L1,16.36a2,2,0,0,1,2.8-.43L8.4,19.3a2,2,0,0,1,.43,2.79l-.9,1.28A.42.42,0,0,1,7.61,23.53Z"/><path class="cls-1" d="M18.32,2.57a2.86,2.86,0,0,0-2.51-2l-.3,0a3.58,3.58,0,0,0-3,1.59,3.59,3.59,0,0,0-3-1.59L9.2.56a2.88,2.88,0,0,0-2.51,2,3.05,3.05,0,0,0,.89,3.25l4.67,4.07a.39.39,0,0,0,.26.09.38.38,0,0,0,.25-.09l4.68-4.07A3,3,0,0,0,18.32,2.57ZM16.93,5.24,12.51,9.08,8.09,5.24a2.25,2.25,0,0,1-.66-2.43A2.1,2.1,0,0,1,9.27,1.33h.24a2.85,2.85,0,0,1,2.64,1.77.39.39,0,0,0,.72,0,2.84,2.84,0,0,1,2.64-1.77h.24a2.11,2.11,0,0,1,1.84,1.48A2.25,2.25,0,0,1,16.93,5.24Z"/><path class="cls-1" d="M12.51,7.8a.27.27,0,0,1-.2-.09.28.28,0,0,1,0-.37l.49-.44a.27.27,0,0,1,.37,0,.26.26,0,0,1,0,.37l-.49.43A.23.23,0,0,1,12.51,7.8Z"/><path class="cls-1" d="M13.82,6.63a.25.25,0,0,1-.19-.09.26.26,0,0,1,0-.37l.82-.73a.26.26,0,1,1,.35.39L14,6.56A.26.26,0,0,1,13.82,6.63Z"/><path class="cls-1" d="M15.47,5.16a.24.24,0,0,1-.19-.08.26.26,0,0,1,0-.37l.49-.44a.26.26,0,1,1,.35.39l-.49.44A.3.3,0,0,1,15.47,5.16Z"/></svg>