<svg id="Layer_1" data-name="Layer 1" xmlns="http://www.w3.org/2000/svg" viewBox="0 0 24 24"><defs><style>.cls-1{fill:#b6b5eb;}</style></defs><path class="cls-1" d="M16,13a1.38,1.38,0,0,0-1.38-1.39H8.94V7h6v1.6a.55.55,0,0,0,.55.55A.55.55,0,0,0,16,8.63V7.31a1.38,1.38,0,0,0-1.38-1.38H9.22A1.38,1.38,0,0,0,7.83,7.31v4a1.39,1.39,0,0,0,1.39,1.39h5.69V17.3h-6V15.7a.56.56,0,0,0-1.11,0V17a1.39,1.39,0,0,0,1.39,1.39h5.41A1.39,1.39,0,0,0,16,17Z"/><path class="cls-1" d="M11.92,4.76a.56.56,0,0,0-.55.56V19a.56.56,0,0,0,.55.56.55.55,0,0,0,.55-.56V5.32A.55.55,0,0,0,11.92,4.76Z"/><path class="cls-1" d="M11.92.71A11.45,11.45,0,1,0,23.37,12.15,11.45,11.45,0,0,0,11.92.71Zm0,21.78A10.34,10.34,0,1,1,22.26,12.15,10.35,10.35,0,0,1,11.92,22.49Z"/></svg>