<?xml version="1.0" encoding="utf-8"?>
<!-- Generator: Adobe Illustrator 26.0.1, SVG Export Plug-In . SVG Version: 6.00 Build 0)  -->
<svg version="1.1" id="Layer_1" xmlns="http://www.w3.org/2000/svg" xmlns:xlink="http://www.w3.org/1999/xlink" x="0px" y="0px"
	 viewBox="0 0 24 24" style="enable-background:new 0 0 24 24;" xml:space="preserve">
<style type="text/css">
	.st0{fill:#505050;}
</style>
<g>
	<path class="st0" d="M16,13c0-0.8-0.6-1.4-1.4-1.4H8.9V7h6v1.6c0,0.3,0.2,0.6,0.6,0.6S16,8.9,16,8.6V7.3c0-0.8-0.6-1.4-1.4-1.4H9.2
		c-0.8,0-1.4,0.6-1.4,1.4v4c0,0.8,0.6,1.4,1.4,1.4h5.7v4.6h-6v-1.6c0-0.3-0.2-0.6-0.6-0.6s-0.6,0.2-0.6,0.6V17
		c0,0.8,0.6,1.4,1.4,1.4h5.4c0.8,0,1.4-0.6,1.4-1.4V13z"/>
	<path class="st0" d="M11.9,4.8c-0.3,0-0.6,0.2-0.6,0.6V19c0,0.3,0.2,0.6,0.6,0.6s0.6-0.2,0.6-0.6V5.3C12.5,5,12.2,4.8,11.9,4.8z"/>
	<path class="st0" d="M11.9,0.7C5.6,0.7,0.5,5.8,0.5,12.2s5.1,11.4,11.4,11.4s11.4-5.1,11.4-11.4S18.2,0.7,11.9,0.7z M11.9,22.5
		c-5.7,0-10.3-4.6-10.3-10.3S6.2,1.8,11.9,1.8s10.3,4.6,10.3,10.3S17.6,22.5,11.9,22.5z"/>
</g>
</svg>
