<?xml version="1.0" encoding="utf-8"?>
<!-- Generator: Adobe Illustrator 26.0.1, SVG Export Plug-In . SVG Version: 6.00 Build 0)  -->
<svg version="1.1" id="Layer_1" xmlns="http://www.w3.org/2000/svg" xmlns:xlink="http://www.w3.org/1999/xlink" x="0px" y="0px"
	 viewBox="0 0 24 24" style="enable-background:new 0 0 24 24;" xml:space="preserve">
<style type="text/css">
	.st0{fill:#B6B5EB;}
</style>
<g>
	<g id="XMLID_29_">
		<path class="st0" d="M14.4,11.4L3.3,15.6L0.9,9.5L15.2,4l1.3,3.5c0.3-0.2,0.5-0.3,0.8-0.4l-1.3-3.4c-0.2-0.5-0.7-0.7-1.2-0.5
			L0.6,8.6C0.4,8.7,0.2,8.9,0.1,9.1C0,9.3,0,9.5,0.1,9.8L2.4,16c0.1,0.4,0.5,0.6,0.9,0.6c0.1,0,0.2,0,0.3-0.1l10.9-4.1
			C14.4,12.1,14.4,11.7,14.4,11.4z"/>
		<path id="XMLID_253_" class="st0" d="M10,7.6C9.5,7.3,8.9,7.2,8.3,7.4c-1.1,0.4-1.5,1.8-1,3.2c0.2,0.6,0.7,1.1,1.2,1.5
			c0.4,0.2,0.7,0.3,1.1,0.3c0.2,0,0.4,0,0.6-0.1c0.5-0.2,0.9-0.7,1.1-1.3c0.2-0.6,0.1-1.2-0.1-1.9C10.9,8.5,10.5,8,10,7.6z
			 M10.4,10.7c-0.1,0.3-0.3,0.6-0.6,0.7c-0.3,0.1-0.6,0.1-0.9-0.1c-0.3-0.2-0.6-0.6-0.8-1C7.8,9.4,8,8.5,8.6,8.3
			c0.1,0,0.2-0.1,0.3-0.1c0.2,0,0.4,0.1,0.6,0.2c0.3,0.2,0.6,0.6,0.8,1v0C10.5,9.9,10.5,10.3,10.4,10.7z"/>
		<g>
			<path class="st0" d="M14.7,9.6L13,10.2c-0.2,0.1-0.4,0.4-0.3,0.6c0.1,0.2,0.2,0.3,0.4,0.3c0.1,0,0.1,0,0.2,0l1.1-0.4
				C14.5,10.3,14.6,9.9,14.7,9.6z"/>
			<path class="st0" d="M15.1,8.9c0.2-0.3,0.4-0.6,0.7-0.8L14.6,5l-3.1,1.2c-0.2,0.1-0.4,0.4-0.3,0.6c0.1,0.2,0.4,0.4,0.6,0.3
				l2.3-0.9L15.1,8.9z"/>
		</g>
		<path id="XMLID_255_" class="st0" d="M6.5,12.7l-2.3,0.9L3,10.4l2.3-0.9c0.2-0.1,0.4-0.4,0.3-0.6C5.5,8.7,5.2,8.6,5,8.7L1.8,9.9
			l1.8,4.9l3.1-1.2c0.2-0.1,0.4-0.4,0.3-0.6C7,12.7,6.7,12.6,6.5,12.7z"/>
		<path id="XMLID_256_" class="st0" d="M13.8,8.1c-0.1-0.2-0.4-0.4-0.6-0.3l-0.9,0.4C12,8.3,11.9,8.6,12,8.8C12,9,12.2,9.1,12.4,9.1
			c0.1,0,0.1,0,0.2,0l0.9-0.4C13.7,8.6,13.8,8.4,13.8,8.1z"/>
		<path id="XMLID_290_" class="st0" d="M4.5,11.6c0.1,0.2,0.2,0.3,0.4,0.3c0.1,0,0.1,0,0.2,0L6,11.5c0.2-0.1,0.4-0.4,0.3-0.6
			c-0.1-0.2-0.4-0.4-0.6-0.3L4.8,11C4.5,11.1,4.4,11.4,4.5,11.6z"/>
		<g>
			<path class="st0" d="M18.3,6.9c0.2,0,0.5-0.1,0.7-0.1c0.1,0,0.2,0,0.3,0l-1.2-3.2c-0.1-0.2-0.4-0.4-0.6-0.3
				c-0.2,0.1-0.4,0.4-0.3,0.6L18.3,6.9z"/>
			<path class="st0" d="M14.8,13.1l-10.6,4c-0.2,0.1-0.4,0.4-0.3,0.6C4,17.9,4.2,18,4.3,18c0.1,0,0.1,0,0.2,0l10.7-4.1
				C15.1,13.6,14.9,13.4,14.8,13.1z"/>
		</g>
		<g>
			<path class="st0" d="M20.5,7.1c0.4,0.1,0.8,0.3,1.2,0.6l-1.1-3c-0.1-0.2-0.4-0.4-0.6-0.3c-0.2,0.1-0.4,0.4-0.3,0.6L20.5,7.1z"/>
			<path class="st0" d="M16,14.7L5.8,18.5c-0.2,0.1-0.4,0.4-0.3,0.6c0.1,0.2,0.2,0.3,0.4,0.3c0.1,0,0.1,0,0.2,0l10.8-4.1
				C16.6,15.1,16.3,14.9,16,14.7z"/>
		</g>
	</g>
	<path id="XMLID_00000051362427701330734040000008548677779101842853_" class="st0" d="M20.8,6.7c-0.5-0.2-1.1-0.3-1.7-0.3
		c-2.7,0-4.9,2.2-4.9,4.9c0,0.6,0.1,1.1,0.3,1.6l0.4,0.8c0.8,1.5,2.4,2.5,4.3,2.5c2.7,0,4.9-2.2,4.9-4.9c0-1.8-1-3.4-2.4-4.2
		L20.8,6.7z M19.1,15.4c-2.3,0-4.1-1.8-4.1-4.1s1.8-4.1,4.1-4.1s4.1,1.8,4.1,4.1S21.3,15.4,19.1,15.4z"/>
</g>
<path class="st0" d="M22.7,8.4c-0.1-0.1-0.2-0.1-0.4-0.1c-0.1,0-0.3,0.1-0.4,0.2l-3.1,3.4l-1.5-1.2c-0.2-0.2-0.5-0.1-0.7,0.1
	c-0.2,0.2-0.1,0.5,0.1,0.7l1.9,1.5C18.7,13,18.8,13,19,13c0.1,0,0.3-0.1,0.4-0.2l3.4-3.7c0.1-0.1,0.1-0.2,0.1-0.4
	C22.9,8.6,22.8,8.5,22.7,8.4z"/>
</svg>
