<?xml version="1.0" encoding="utf-8"?>
<!-- Generator: Adobe Illustrator 26.0.1, SVG Export Plug-In . SVG Version: 6.00 Build 0)  -->
<svg version="1.1" id="Layer_1" xmlns="http://www.w3.org/2000/svg" xmlns:xlink="http://www.w3.org/1999/xlink" x="0px" y="0px"
	 viewBox="0 0 24 24" style="enable-background:new 0 0 24 24;" xml:space="preserve">
<style type="text/css">
	.st0{fill:#505050;}
</style>
<g>
	<path class="st0" d="M15.3,11.6c0-0.5-0.4-0.9-0.9-0.9s-0.9,0.4-0.9,0.9s0.4,0.9,0.9,0.9S15.3,12.1,15.3,11.6z"/>
	<path class="st0" d="M12,16.3c-0.8,0-1.7-0.3-1.7-0.9c0-0.2,0.2-0.4,0.4-0.4c0.2,0,0.3,0.1,0.4,0.3c0.1,0.1,0.4,0.2,0.9,0.2
		c0.5,0,0.8-0.1,0.9-0.2c0-0.2,0.2-0.3,0.4-0.3c0.2,0,0.4,0.2,0.4,0.4C13.7,16,12.8,16.3,12,16.3z"/>
	<path class="st0" d="M8.7,11.6c0-0.5,0.4-0.9,0.9-0.9c0.5,0,0.9,0.4,0.9,0.9s-0.4,0.9-0.9,0.9C9.1,12.5,8.7,12.1,8.7,11.6z"/>
	<path class="st0" d="M12,20.1c-3.9,0-7.1-3.2-7.1-7.1S8.1,5.8,12,5.8S19.1,9,19.1,13S15.9,20.1,12,20.1z M12,6.6
		c-3.5,0-6.4,2.9-6.4,6.4c0,3.5,2.9,6.4,6.4,6.4c3.5,0,6.4-2.9,6.4-6.4C18.4,9.4,15.5,6.6,12,6.6z"/>
	<path class="st0" d="M17,17.9c-0.1,0-0.3-0.1-0.3-0.2c-0.1-0.1,0-0.3,0.1-0.4c1.1-1.2,1.7-2.7,1.7-4.3c0-3.5-2.9-6.4-6.4-6.4
		c-0.1,0-0.1,0-0.1,0c-0.2,0-0.3-0.1-0.4-0.2c-0.1-0.1,0-0.3,0.1-0.4c1.4-1.5,3.3-2.3,5.3-2.3c3.9,0,7.1,3.2,7.1,7.1
		C24,14.6,20.8,17.8,17,17.9C17,17.9,17,17.9,17,17.9z M12.8,5.9c3.6,0.4,6.3,3.4,6.3,7.1c0,1.5-0.5,2.9-1.3,4.1
		c3.1-0.5,5.4-3.1,5.4-6.3c0-3.5-2.9-6.4-6.4-6.4C15.4,4.4,13.9,4.9,12.8,5.9z"/>
	<path class="st0" d="M7,17.9c-3.9-0.1-7-3.3-7-7.1c0-3.9,3.2-7.1,7.1-7.1c2,0,3.9,0.9,5.3,2.3c0.1,0.1,0.1,0.3,0.1,0.4
		c-0.1,0.1-0.2,0.2-0.4,0.2c0,0,0,0-0.1,0c-3.5,0-6.4,2.9-6.4,6.4c0,1.6,0.6,3.1,1.7,4.3c0.1,0.1,0.1,0.3,0.1,0.4
		C7.3,17.8,7.1,17.9,7,17.9z M7.1,4.4c-3.5,0-6.4,2.9-6.4,6.4c0,3.2,2.4,5.8,5.4,6.3c-0.8-1.2-1.3-2.6-1.3-4.1
		c0-3.7,2.8-6.7,6.3-7.1C10,4.9,8.6,4.4,7.1,4.4z"/>
	<path class="st0" d="M21.6,8.7c0-0.5-0.4-0.9-0.9-0.9c-0.5,0-0.9,0.4-0.9,0.9c0,0.5,0.4,0.9,0.9,0.9C21.2,9.5,21.6,9.1,21.6,8.7z"
		/>
	<path class="st0" d="M18.8,14.6c-0.1,0-0.2,0-0.3,0c-0.2,0-0.3-0.2-0.3-0.4c0-0.2,0.2-0.3,0.4-0.3c0.1,0,1.1,0.1,1.4-1.1
		c0.1-0.2,0.3-0.3,0.5-0.3c0.2,0.1,0.3,0.3,0.3,0.5C20.4,14.3,19.4,14.6,18.8,14.6z"/>
	<path class="st0" d="M2.4,8.7c0-0.5,0.4-0.9,0.9-0.9c0.5,0,0.9,0.4,0.9,0.9c0,0.5-0.4,0.9-0.9,0.9C2.8,9.5,2.4,9.1,2.4,8.7z"/>
	<path class="st0" d="M5.2,14.6c-0.6,0-1.6-0.3-2-1.7c-0.1-0.2,0.1-0.4,0.3-0.5c0.2-0.1,0.4,0.1,0.5,0.3c0.3,1.2,1.3,1.1,1.4,1.1
		c0.2,0,0.4,0.1,0.4,0.3c0,0.2-0.1,0.4-0.3,0.4C5.3,14.6,5.3,14.6,5.2,14.6z"/>
</g>
</svg>
